<?xml version="1.0" encoding="UTF-8" standalone="no"?><svg xmlns="http://www.w3.org/2000/svg" xmlns:xlink="http://www.w3.org/1999/xlink" contentScriptType="application/ecmascript" contentStyleType="text/css" height="511px" preserveAspectRatio="none" style="width:1498px;height:511px;" version="1.1" viewBox="0 0 1498 511" width="1498px" zoomAndPan="magnify"><defs><filter height="300%" id="fciuotzr1wgxe" width="300%" x="-1" y="-1"><feGaussianBlur result="blurOut" stdDeviation="2.0"/><feColorMatrix in="blurOut" result="blurOut2" type="matrix" values="0 0 0 0 0 0 0 0 0 0 0 0 0 0 0 0 0 0 .4 0"/><feOffset dx="4.0" dy="4.0" in="blurOut2" result="blurOut3"/><feBlend in="SourceGraphic" in2="blurOut3" mode="normal"/></filter></defs><g><ellipse cx="463.9375" cy="20" fill="#000000" filter="url(#fciuotzr1wgxe)" rx="10" ry="10" style="stroke: none; stroke-width: 1.0;"/><rect fill="#FEFECE" filter="url(#fciuotzr1wgxe)" height="33.9688" rx="12.5" ry="12.5" style="stroke: #A80036; stroke-width: 1.5;" width="174" x="376.9375" y="50"/><text fill="#000000" font-family="sans-serif" font-size="12" font-weight="bold" lengthAdjust="spacingAndGlyphs" textLength="154" x="386.9375" y="71.1387">Composer Autoloader</text><polygon fill="#FEFECE" filter="url(#fciuotzr1wgxe)" points="327.4375,103.9688,600.4375,103.9688,612.4375,115.9688,600.4375,127.9688,327.4375,127.9688,315.4375,115.9688,327.4375,103.9688" style="stroke: #A80036; stroke-width: 1.5;"/><text fill="#000000" font-family="sans-serif" font-size="11" lengthAdjust="spacingAndGlyphs" textLength="273" x="327.4375" y="119.7769">is there a autoload section in a composer.json?</text><text fill="#000000" font-family="sans-serif" font-size="11" lengthAdjust="spacingAndGlyphs" textLength="23" x="292.4375" y="113.3745">true</text><text fill="#000000" font-family="sans-serif" font-size="11" lengthAdjust="spacingAndGlyphs" textLength="28" x="612.4375" y="113.3745">false</text><rect fill="#FEFECE" filter="url(#fciuotzr1wgxe)" height="33.9688" rx="12.5" ry="12.5" style="stroke: #A80036; stroke-width: 1.5;" width="358" x="10" y="137.9688"/><text fill="#000000" font-family="sans-serif" font-size="12" lengthAdjust="spacingAndGlyphs" textLength="338" x="20" y="159.1074">Load class according composer.json autolaod section</text><ellipse cx="189" cy="201.9375" fill="none" filter="url(#fciuotzr1wgxe)" rx="10" ry="10" style="stroke: #000000; stroke-width: 1.0;"/><ellipse cx="189.5" cy="202.4375" fill="#000000" filter="url(#fciuotzr1wgxe)" rx="6" ry="6" style="stroke: none; stroke-width: 1.0;"/><rect fill="#FEFECE" filter="url(#fciuotzr1wgxe)" height="33.9688" rx="12.5" ry="12.5" style="stroke: #A80036; stroke-width: 1.5;" width="277" x="600.375" y="137.9688"/><text fill="#000000" font-family="sans-serif" font-size="12" font-weight="bold" lengthAdjust="spacingAndGlyphs" textLength="257" x="610.375" y="159.1074">Backwards Compatibility Autoloader</text><rect fill="#FEFECE" filter="url(#fciuotzr1wgxe)" height="33.9688" rx="12.5" ry="12.5" style="stroke: #A80036; stroke-width: 1.5;" width="34" x="721.875" y="191.9375"/><text fill="#000000" font-family="sans-serif" font-size="12" lengthAdjust="spacingAndGlyphs" textLength="14" x="731.875" y="213.0762">-&gt;</text><polygon fill="#FEFECE" filter="url(#fciuotzr1wgxe)" points="553.875,245.9063,923.875,245.9063,935.875,257.9063,923.875,269.9063,553.875,269.9063,541.875,257.9063,553.875,245.9063" style="stroke: #A80036; stroke-width: 1.5;"/><text fill="#000000" font-family="sans-serif" font-size="11" lengthAdjust="spacingAndGlyphs" textLength="370" x="553.875" y="261.7144">class can be resolved to the unified namespace equivalent class</text><text fill="#000000" font-family="sans-serif" font-size="11" lengthAdjust="spacingAndGlyphs" textLength="23" x="518.875" y="255.312">true</text><text fill="#000000" font-family="sans-serif" font-size="11" lengthAdjust="spacingAndGlyphs" textLength="28" x="935.875" y="255.312">false</text><rect fill="#FEFECE" filter="url(#fciuotzr1wgxe)" height="33.9688" rx="12.5" ry="12.5" style="stroke: #A80036; stroke-width: 1.5;" width="202" x="398" y="279.9063"/><text fill="#000000" font-family="sans-serif" font-size="12" lengthAdjust="spacingAndGlyphs" textLength="182" x="408" y="301.0449">trigger Compsoer Autoloader</text><ellipse cx="499" cy="343.875" fill="none" filter="url(#fciuotzr1wgxe)" rx="10" ry="10" style="stroke: #000000; stroke-width: 1.0;"/><ellipse cx="499.5" cy="344.375" fill="#000000" filter="url(#fciuotzr1wgxe)" rx="6" ry="6" style="stroke: none; stroke-width: 1.0;"/><rect fill="#FEFECE" filter="url(#fciuotzr1wgxe)" height="33.9688" rx="12.5" ry="12.5" style="stroke: #A80036; stroke-width: 1.5;" width="155" x="901.25" y="279.9063"/><text fill="#000000" font-family="sans-serif" font-size="12" font-weight="bold" lengthAdjust="spacingAndGlyphs" textLength="135" x="911.25" y="301.0449">Module Autoloader</text><polygon fill="#FEFECE" filter="url(#fciuotzr1wgxe)" points="852.75,333.875,1104.75,333.875,1116.75,345.875,1104.75,357.875,852.75,357.875,840.75,345.875,852.75,333.875" style="stroke: #A80036; stroke-width: 1.5;"/><text fill="#000000" font-family="sans-serif" font-size="11" lengthAdjust="spacingAndGlyphs" textLength="252" x="852.75" y="349.6831">class found in module metadata files array?</text><text fill="#000000" font-family="sans-serif" font-size="11" lengthAdjust="spacingAndGlyphs" textLength="23" x="817.75" y="343.2808">true</text><text fill="#000000" font-family="sans-serif" font-size="11" lengthAdjust="spacingAndGlyphs" textLength="28" x="1116.75" y="343.2808">false</text><rect fill="#FEFECE" filter="url(#fciuotzr1wgxe)" height="33.9688" rx="12.5" ry="12.5" style="stroke: #A80036; stroke-width: 1.5;" width="282" x="630" y="367.875"/><text fill="#000000" font-family="sans-serif" font-size="12" lengthAdjust="spacingAndGlyphs" textLength="262" x="640" y="389.0137">Load class from path defined in metadata</text><ellipse cx="771" cy="446.8438" fill="none" filter="url(#fciuotzr1wgxe)" rx="10" ry="10" style="stroke: #000000; stroke-width: 1.0;"/><ellipse cx="771.5" cy="447.3438" fill="#000000" filter="url(#fciuotzr1wgxe)" rx="6" ry="6" style="stroke: none; stroke-width: 1.0;"/><polygon fill="#FEFECE" filter="url(#fciuotzr1wgxe)" points="1050,367.875,1323,367.875,1335,379.875,1323,391.875,1050,391.875,1038,379.875,1050,367.875" style="stroke: #A80036; stroke-width: 1.5;"/><text fill="#000000" font-family="sans-serif" font-size="11" lengthAdjust="spacingAndGlyphs" textLength="273" x="1050" y="383.6831">class found in module metadata extends array?</text><text fill="#000000" font-family="sans-serif" font-size="11" lengthAdjust="spacingAndGlyphs" textLength="23" x="1015" y="377.2808">true</text><text fill="#000000" font-family="sans-serif" font-size="11" lengthAdjust="spacingAndGlyphs" textLength="28" x="1335" y="377.2808">false</text><rect fill="#FEFECE" filter="url(#fciuotzr1wgxe)" height="33.9688" rx="12.5" ry="12.5" style="stroke: #A80036; stroke-width: 1.5;" width="172" x="942" y="401.875"/><text fill="#000000" font-family="sans-serif" font-size="12" lengthAdjust="spacingAndGlyphs" textLength="152" x="952" y="423.0137">Create extension chains</text><ellipse cx="1028" cy="480.8438" fill="none" filter="url(#fciuotzr1wgxe)" rx="10" ry="10" style="stroke: #000000; stroke-width: 1.0;"/><ellipse cx="1028.5" cy="481.3438" fill="#000000" filter="url(#fciuotzr1wgxe)" rx="6" ry="6" style="stroke: none; stroke-width: 1.0;"/><rect fill="#FEFECE" filter="url(#fciuotzr1wgxe)" height="47.9375" rx="12.5" ry="12.5" style="stroke: #A80036; stroke-width: 1.5;" width="292" x="1199" y="401.875"/><text fill="#000000" font-family="sans-serif" font-size="12" lengthAdjust="spacingAndGlyphs" textLength="272" x="1209" y="423.0137">Loads any other registered autoloader or a</text><text fill="#000000" font-family="sans-serif" font-size="12" lengthAdjust="spacingAndGlyphs" textLength="226" x="1209" y="436.9824">Class not found fatal error is thrown</text><ellipse cx="1345" cy="494.8125" fill="none" filter="url(#fciuotzr1wgxe)" rx="10" ry="10" style="stroke: #000000; stroke-width: 1.0;"/><ellipse cx="1345.5" cy="495.3125" fill="#000000" filter="url(#fciuotzr1wgxe)" rx="6" ry="6" style="stroke: none; stroke-width: 1.0;"/><line style="stroke: #A80036; stroke-width: 1.5;" x1="463.9375" x2="463.9375" y1="30" y2="50"/><polygon fill="#A80036" points="459.9375,40,463.9375,50,467.9375,40,463.9375,44" style="stroke: #A80036; stroke-width: 1.0;"/><line style="stroke: #A80036; stroke-width: 1.5;" x1="189" x2="189" y1="171.9375" y2="191.9375"/><polygon fill="#A80036" points="185,181.9375,189,191.9375,193,181.9375,189,185.9375" style="stroke: #A80036; stroke-width: 1.0;"/><line style="stroke: #A80036; stroke-width: 1.5;" x1="738.875" x2="738.875" y1="171.9375" y2="191.9375"/><polygon fill="#A80036" points="734.875,181.9375,738.875,191.9375,742.875,181.9375,738.875,185.9375" style="stroke: #A80036; stroke-width: 1.0;"/><line style="stroke: #A80036; stroke-width: 1.5;" x1="499" x2="499" y1="313.875" y2="333.875"/><polygon fill="#A80036" points="495,323.875,499,333.875,503,323.875,499,327.875" style="stroke: #A80036; stroke-width: 1.0;"/><line style="stroke: #A80036; stroke-width: 1.5;" x1="771" x2="771" y1="401.8438" y2="436.8438"/><polygon fill="#A80036" points="767,426.8438,771,436.8438,775,426.8438,771,430.8438" style="stroke: #A80036; stroke-width: 1.0;"/><line style="stroke: #A80036; stroke-width: 1.5;" x1="1028" x2="1028" y1="435.8438" y2="470.8438"/><polygon fill="#A80036" points="1024,460.8438,1028,470.8438,1032,460.8438,1028,464.8438" style="stroke: #A80036; stroke-width: 1.0;"/><line style="stroke: #A80036; stroke-width: 1.5;" x1="1345" x2="1345" y1="449.8125" y2="484.8125"/><polygon fill="#A80036" points="1341,474.8125,1345,484.8125,1349,474.8125,1345,478.8125" style="stroke: #A80036; stroke-width: 1.0;"/><line style="stroke: #A80036; stroke-width: 1.5;" x1="1038" x2="1028" y1="379.875" y2="379.875"/><line style="stroke: #A80036; stroke-width: 1.5;" x1="1028" x2="1028" y1="379.875" y2="401.875"/><polygon fill="#A80036" points="1024,391.875,1028,401.875,1032,391.875,1028,395.875" style="stroke: #A80036; stroke-width: 1.0;"/><line style="stroke: #A80036; stroke-width: 1.5;" x1="1335" x2="1345" y1="379.875" y2="379.875"/><line style="stroke: #A80036; stroke-width: 1.5;" x1="1345" x2="1345" y1="379.875" y2="401.875"/><polygon fill="#A80036" points="1341,391.875,1345,401.875,1349,391.875,1345,395.875" style="stroke: #A80036; stroke-width: 1.0;"/><line style="stroke: #A80036; stroke-width: 1.5;" x1="840.75" x2="771" y1="345.875" y2="345.875"/><line style="stroke: #A80036; stroke-width: 1.5;" x1="771" x2="771" y1="345.875" y2="367.875"/><polygon fill="#A80036" points="767,357.875,771,367.875,775,357.875,771,361.875" style="stroke: #A80036; stroke-width: 1.0;"/><line style="stroke: #A80036; stroke-width: 1.5;" x1="1116.75" x2="1186.5" y1="345.875" y2="345.875"/><line style="stroke: #A80036; stroke-width: 1.5;" x1="1186.5" x2="1186.5" y1="345.875" y2="367.875"/><polygon fill="#A80036" points="1182.5,357.875,1186.5,367.875,1190.5,357.875,1186.5,361.875" style="stroke: #A80036; stroke-width: 1.0;"/><line style="stroke: #A80036; stroke-width: 1.5;" x1="978.75" x2="978.75" y1="313.875" y2="333.875"/><polygon fill="#A80036" points="974.75,323.875,978.75,333.875,982.75,323.875,978.75,327.875" style="stroke: #A80036; stroke-width: 1.0;"/><line style="stroke: #A80036; stroke-width: 1.5;" x1="541.875" x2="499" y1="257.9063" y2="257.9063"/><line style="stroke: #A80036; stroke-width: 1.5;" x1="499" x2="499" y1="257.9063" y2="279.9063"/><polygon fill="#A80036" points="495,269.9063,499,279.9063,503,269.9063,499,273.9063" style="stroke: #A80036; stroke-width: 1.0;"/><line style="stroke: #A80036; stroke-width: 1.5;" x1="935.875" x2="978.75" y1="257.9063" y2="257.9063"/><line style="stroke: #A80036; stroke-width: 1.5;" x1="978.75" x2="978.75" y1="257.9063" y2="279.9063"/><polygon fill="#A80036" points="974.75,269.9063,978.75,279.9063,982.75,269.9063,978.75,273.9063" style="stroke: #A80036; stroke-width: 1.0;"/><line style="stroke: #A80036; stroke-width: 1.5;" x1="738.875" x2="738.875" y1="225.9063" y2="245.9063"/><polygon fill="#A80036" points="734.875,235.9063,738.875,245.9063,742.875,235.9063,738.875,239.9063" style="stroke: #A80036; stroke-width: 1.0;"/><line style="stroke: #A80036; stroke-width: 1.5;" x1="315.4375" x2="189" y1="115.9688" y2="115.9688"/><line style="stroke: #A80036; stroke-width: 1.5;" x1="189" x2="189" y1="115.9688" y2="137.9688"/><polygon fill="#A80036" points="185,127.9688,189,137.9688,193,127.9688,189,131.9688" style="stroke: #A80036; stroke-width: 1.0;"/><line style="stroke: #A80036; stroke-width: 1.5;" x1="612.4375" x2="738.875" y1="115.9688" y2="115.9688"/><line style="stroke: #A80036; stroke-width: 1.5;" x1="738.875" x2="738.875" y1="115.9688" y2="137.9688"/><polygon fill="#A80036" points="734.875,127.9688,738.875,137.9688,742.875,127.9688,738.875,131.9688" style="stroke: #A80036; stroke-width: 1.0;"/><line style="stroke: #A80036; stroke-width: 1.5;" x1="463.9375" x2="463.9375" y1="83.9688" y2="103.9688"/><polygon fill="#A80036" points="459.9375,93.9688,463.9375,103.9688,467.9375,93.9688,463.9375,97.9688" style="stroke: #A80036; stroke-width: 1.0;"/><!--
@startuml
   start
   :<b>Composer Autoloader</b>;
       if (is there a autoload section in a composer.json?) then (true)
           :Load class according composer.json autolaod section;
           stop
       else (false)
           :<b>Backwards Compatibility Autoloader</b>;
           - ->
           if (class can be resolved to the unified namespace equivalent class) then (true)
               :trigger Compsoer Autoloader;
               stop
           else (false)
               :<b>Module Autoloader</b>;
               if (class found in module metadata files array?) then (true)
                   :Load class from path defined in metadata;
                   stop
               else (false)
                   if (class found in module metadata extends array?) then (true)
                       :Create extension chains;
                       stop
                   else (false)
                       :Loads any other registered autoloader or a
                       Class not found fatal error is thrown;
                       stop
                   endif
               endif
           endif
       endif
    @enduml

PlantUML version 1.2017.12(Wed Apr 26 18:06:36 CEST 2017)
(GPL source distribution)
Java Runtime: OpenJDK Runtime Environment
JVM: OpenJDK 64-Bit Server VM
Java Version: 1.8.0_152-release-915-b5
Operating System: Linux
OS Version: 4.4.0-87-generic
Default Encoding: UTF-8
Language: de
Country: DE
--></g></svg>