<?xml version="1.0" encoding="UTF-8" standalone="no"?><svg xmlns="http://www.w3.org/2000/svg" xmlns:xlink="http://www.w3.org/1999/xlink" contentScriptType="application/ecmascript" contentStyleType="text/css" height="610px" preserveAspectRatio="none" style="width:542px;height:610px;" version="1.1" viewBox="0 0 542 610" width="542px" zoomAndPan="magnify"><defs><filter height="300%" id="f1dlux7wi4wbit" width="300%" x="-1" y="-1"><feGaussianBlur result="blurOut" stdDeviation="2.0"/><feColorMatrix in="blurOut" result="blurOut2" type="matrix" values="0 0 0 0 0 0 0 0 0 0 0 0 0 0 0 0 0 0 .4 0"/><feOffset dx="4.0" dy="4.0" in="blurOut2" result="blurOut3"/><feBlend in="SourceGraphic" in2="blurOut3" mode="normal"/></filter></defs><g><!--class OxidEsales\EshopCommunity\Application\Model\Article--><rect fill="#FEFECE" filter="url(#f1dlux7wi4wbit)" height="48" id="OxidEsales\EshopCommunity\Application\Model\Article" style="stroke: #A80036; stroke-width: 1.5;" width="367" x="10.5" y="8"/><ellipse cx="25.5" cy="24" fill="#ADD1B2" rx="11" ry="11" style="stroke: #A80036; stroke-width: 1.0;"/><path d="M28.5,29 Q27.8906,29.5 27.2344,29.75 Q26.5781,30 25.8438,30 Q23.2344,30 21.8672,28.4609 Q20.5,26.9219 20.5,24 Q20.5,21.0781 21.8672,19.5391 Q23.2344,18 25.8438,18 Q26.5781,18 27.25,18.25 Q27.9219,18.5 28.5,19 L28.5,22 Q27.8906,20.9688 27.3125,20.4844 Q26.7344,20 26.125,20 Q24.8281,20 24.1641,21.0078 Q23.5,22.0156 23.5,24 Q23.5,25.9844 24.1641,26.9922 Q24.8281,28 26.125,28 Q26.7344,28 27.3125,27.5156 Q27.8906,27.0313 28.5,26 L28.5,29 Z "/><text fill="#000000" font-family="sans-serif" font-size="12" lengthAdjust="spacingAndGlyphs" textLength="335" x="39.5" y="28.1543">OxidEsales\EshopCommunity\Application\Model\Article</text><line style="stroke: #A80036; stroke-width: 1.5;" x1="11.5" x2="376.5" y1="40" y2="40"/><line style="stroke: #A80036; stroke-width: 1.5;" x1="11.5" x2="376.5" y1="48" y2="48"/><!--class OxidEsales\EshopProfessional\Application\Model\Article--><rect fill="#FEFECE" filter="url(#f1dlux7wi4wbit)" height="48" id="OxidEsales\EshopProfessional\Application\Model\Article" style="stroke: #A80036; stroke-width: 1.5;" width="376" x="6" y="117"/><ellipse cx="21" cy="133" fill="#ADD1B2" rx="11" ry="11" style="stroke: #A80036; stroke-width: 1.0;"/><path d="M24,138 Q23.3906,138.5 22.7344,138.75 Q22.0781,139 21.3438,139 Q18.7344,139 17.3672,137.4609 Q16,135.9219 16,133 Q16,130.0781 17.3672,128.5391 Q18.7344,127 21.3438,127 Q22.0781,127 22.75,127.25 Q23.4219,127.5 24,128 L24,131 Q23.3906,129.9688 22.8125,129.4844 Q22.2344,129 21.625,129 Q20.3281,129 19.6641,130.0078 Q19,131.0156 19,133 Q19,134.9844 19.6641,135.9922 Q20.3281,137 21.625,137 Q22.2344,137 22.8125,136.5156 Q23.3906,136.0313 24,135 L24,138 Z "/><text fill="#000000" font-family="sans-serif" font-size="12" lengthAdjust="spacingAndGlyphs" textLength="344" x="35" y="137.1543">OxidEsales\EshopProfessional\Application\Model\Article</text><line style="stroke: #A80036; stroke-width: 1.5;" x1="7" x2="381" y1="149" y2="149"/><line style="stroke: #A80036; stroke-width: 1.5;" x1="7" x2="381" y1="157" y2="157"/><!--class OxidEsales\EshopEnterprise\Application\Model\Article--><rect fill="#FEFECE" filter="url(#f1dlux7wi4wbit)" height="48" id="OxidEsales\EshopEnterprise\Application\Model\Article" style="stroke: #A80036; stroke-width: 1.5;" width="364" x="12" y="226"/><ellipse cx="27" cy="242" fill="#ADD1B2" rx="11" ry="11" style="stroke: #A80036; stroke-width: 1.0;"/><path d="M30,247 Q29.3906,247.5 28.7344,247.75 Q28.0781,248 27.3438,248 Q24.7344,248 23.3672,246.4609 Q22,244.9219 22,242 Q22,239.0781 23.3672,237.5391 Q24.7344,236 27.3438,236 Q28.0781,236 28.75,236.25 Q29.4219,236.5 30,237 L30,240 Q29.3906,238.9688 28.8125,238.4844 Q28.2344,238 27.625,238 Q26.3281,238 25.6641,239.0078 Q25,240.0156 25,242 Q25,243.9844 25.6641,244.9922 Q26.3281,246 27.625,246 Q28.2344,246 28.8125,245.5156 Q29.3906,245.0313 30,244 L30,247 Z "/><text fill="#000000" font-family="sans-serif" font-size="12" lengthAdjust="spacingAndGlyphs" textLength="332" x="41" y="246.1543">OxidEsales\EshopEnterprise\Application\Model\Article</text><line style="stroke: #A80036; stroke-width: 1.5;" x1="13" x2="375" y1="258" y2="258"/><line style="stroke: #A80036; stroke-width: 1.5;" x1="13" x2="375" y1="266" y2="266"/><!--class OxidEsales\Eshop\Application\Model\Article--><rect fill="#FEFECE" filter="url(#f1dlux7wi4wbit)" height="48" id="OxidEsales\Eshop\Application\Model\Article" style="stroke: #A80036; stroke-width: 1.5;" width="299" x="44.5" y="335"/><ellipse cx="59.5" cy="351" fill="#ADD1B2" rx="11" ry="11" style="stroke: #A80036; stroke-width: 1.0;"/><path d="M62.5,356 Q61.8906,356.5 61.2344,356.75 Q60.5781,357 59.8438,357 Q57.2344,357 55.8672,355.4609 Q54.5,353.9219 54.5,351 Q54.5,348.0781 55.8672,346.5391 Q57.2344,345 59.8438,345 Q60.5781,345 61.25,345.25 Q61.9219,345.5 62.5,346 L62.5,349 Q61.8906,347.9688 61.3125,347.4844 Q60.7344,347 60.125,347 Q58.8281,347 58.1641,348.0078 Q57.5,349.0156 57.5,351 Q57.5,352.9844 58.1641,353.9922 Q58.8281,355 60.125,355 Q60.7344,355 61.3125,354.5156 Q61.8906,354.0313 62.5,353 L62.5,356 Z "/><text fill="#000000" font-family="sans-serif" font-size="12" lengthAdjust="spacingAndGlyphs" textLength="267" x="73.5" y="355.1543">OxidEsales\Eshop\Application\Model\Article</text><line style="stroke: #A80036; stroke-width: 1.5;" x1="45.5" x2="342.5" y1="367" y2="367"/><line style="stroke: #A80036; stroke-width: 1.5;" x1="45.5" x2="342.5" y1="375" y2="375"/><!--class Vendor1\Module1\Application\Model\Article--><rect fill="#FEFECE" filter="url(#f1dlux7wi4wbit)" height="48" id="Vendor1\Module1\Application\Model\Article" style="stroke: #A80036; stroke-width: 1.5;" width="299" x="44.5" y="444"/><ellipse cx="59.5" cy="460" fill="#ADD1B2" rx="11" ry="11" style="stroke: #A80036; stroke-width: 1.0;"/><path d="M62.5,465 Q61.8906,465.5 61.2344,465.75 Q60.5781,466 59.8438,466 Q57.2344,466 55.8672,464.4609 Q54.5,462.9219 54.5,460 Q54.5,457.0781 55.8672,455.5391 Q57.2344,454 59.8438,454 Q60.5781,454 61.25,454.25 Q61.9219,454.5 62.5,455 L62.5,458 Q61.8906,456.9688 61.3125,456.4844 Q60.7344,456 60.125,456 Q58.8281,456 58.1641,457.0078 Q57.5,458.0156 57.5,460 Q57.5,461.9844 58.1641,462.9922 Q58.8281,464 60.125,464 Q60.7344,464 61.3125,463.5156 Q61.8906,463.0313 62.5,462 L62.5,465 Z "/><text fill="#000000" font-family="sans-serif" font-size="12" lengthAdjust="spacingAndGlyphs" textLength="267" x="73.5" y="464.1543">Vendor1\Module1\Application\Model\Article</text><line style="stroke: #A80036; stroke-width: 1.5;" x1="45.5" x2="342.5" y1="476" y2="476"/><line style="stroke: #A80036; stroke-width: 1.5;" x1="45.5" x2="342.5" y1="484" y2="484"/><!--class Vendor1\Module2\Application\Model\Article--><rect fill="#FEFECE" filter="url(#f1dlux7wi4wbit)" height="48" id="Vendor1\Module2\Application\Model\Article" style="stroke: #A80036; stroke-width: 1.5;" width="299" x="44.5" y="553"/><ellipse cx="59.5" cy="569" fill="#ADD1B2" rx="11" ry="11" style="stroke: #A80036; stroke-width: 1.0;"/><path d="M62.5,574 Q61.8906,574.5 61.2344,574.75 Q60.5781,575 59.8438,575 Q57.2344,575 55.8672,573.4609 Q54.5,571.9219 54.5,569 Q54.5,566.0781 55.8672,564.5391 Q57.2344,563 59.8438,563 Q60.5781,563 61.25,563.25 Q61.9219,563.5 62.5,564 L62.5,567 Q61.8906,565.9688 61.3125,565.4844 Q60.7344,565 60.125,565 Q58.8281,565 58.1641,566.0078 Q57.5,567.0156 57.5,569 Q57.5,570.9844 58.1641,571.9922 Q58.8281,573 60.125,573 Q60.7344,573 61.3125,572.5156 Q61.8906,572.0313 62.5,571 L62.5,574 Z "/><text fill="#000000" font-family="sans-serif" font-size="12" lengthAdjust="spacingAndGlyphs" textLength="267" x="73.5" y="573.1543">Vendor1\Module2\Application\Model\Article</text><line style="stroke: #A80036; stroke-width: 1.5;" x1="45.5" x2="342.5" y1="585" y2="585"/><line style="stroke: #A80036; stroke-width: 1.5;" x1="45.5" x2="342.5" y1="593" y2="593"/><!--class oxarticle--><rect fill="#FEFECE" filter="url(#f1dlux7wi4wbit)" height="48" id="oxarticle" style="stroke: #A80036; stroke-width: 1.5;" width="85" x="448.5" y="335"/><ellipse cx="463.5" cy="351" fill="#ADD1B2" rx="11" ry="11" style="stroke: #A80036; stroke-width: 1.0;"/><path d="M466.5,356 Q465.8906,356.5 465.2344,356.75 Q464.5781,357 463.8438,357 Q461.2344,357 459.8672,355.4609 Q458.5,353.9219 458.5,351 Q458.5,348.0781 459.8672,346.5391 Q461.2344,345 463.8438,345 Q464.5781,345 465.25,345.25 Q465.9219,345.5 466.5,346 L466.5,349 Q465.8906,347.9688 465.3125,347.4844 Q464.7344,347 464.125,347 Q462.8281,347 462.1641,348.0078 Q461.5,349.0156 461.5,351 Q461.5,352.9844 462.1641,353.9922 Q462.8281,355 464.125,355 Q464.7344,355 465.3125,354.5156 Q465.8906,354.0313 466.5,353 L466.5,356 Z "/><text fill="#000000" font-family="sans-serif" font-size="12" lengthAdjust="spacingAndGlyphs" textLength="53" x="477.5" y="355.1543">oxarticle</text><line style="stroke: #A80036; stroke-width: 1.5;" x1="449.5" x2="532.5" y1="367" y2="367"/><line style="stroke: #A80036; stroke-width: 1.5;" x1="449.5" x2="532.5" y1="375" y2="375"/><!--link OxidEsales\EshopCommunity\Application\Model\Article to OxidEsales\EshopProfessional\Application\Model\Article--><path d="M194,76.578 C194,90.362 194,105.057 194,116.828 " fill="none" id="OxidEsales\EshopCommunity\Application\Model\Article-OxidEsales\EshopProfessional\Application\Model\Article" style="stroke: #A80036; stroke-width: 1.0;"/><polygon fill="none" points="187,76.217,194,56.217,201,76.217,187,76.217" style="stroke: #A80036; stroke-width: 1.0;"/><!--link OxidEsales\EshopProfessional\Application\Model\Article to OxidEsales\EshopEnterprise\Application\Model\Article--><path d="M194,185.578 C194,199.362 194,214.057 194,225.828 " fill="none" id="OxidEsales\EshopProfessional\Application\Model\Article-OxidEsales\EshopEnterprise\Application\Model\Article" style="stroke: #A80036; stroke-width: 1.0;"/><polygon fill="none" points="187,185.217,194,165.217,201,185.217,187,185.217" style="stroke: #A80036; stroke-width: 1.0;"/><!--link OxidEsales\EshopEnterprise\Application\Model\Article to OxidEsales\Eshop\Application\Model\Article--><path d="M194,294.578 C194,308.362 194,323.057 194,334.828 " fill="none" id="OxidEsales\EshopEnterprise\Application\Model\Article-OxidEsales\Eshop\Application\Model\Article" style="stroke: #A80036; stroke-width: 1.0;"/><polygon fill="none" points="187,294.217,194,274.217,201,294.217,187,294.217" style="stroke: #A80036; stroke-width: 1.0;"/><!--link OxidEsales\Eshop\Application\Model\Article to Vendor1\Module1\Application\Model\Article--><path d="M194,403.578 C194,417.362 194,432.057 194,443.828 " fill="none" id="OxidEsales\Eshop\Application\Model\Article-Vendor1\Module1\Application\Model\Article" style="stroke: #A80036; stroke-width: 1.0;"/><polygon fill="none" points="187,403.217,194,383.217,201,403.217,187,403.217" style="stroke: #A80036; stroke-width: 1.0;"/><!--link Vendor1\Module1\Application\Model\Article to Vendor1\Module2\Application\Model\Article--><path d="M194,512.5778 C194,526.3622 194,541.0574 194,552.8279 " fill="none" id="Vendor1\Module1\Application\Model\Article-Vendor1\Module2\Application\Model\Article" style="stroke: #A80036; stroke-width: 1.0;"/><polygon fill="none" points="187,512.2174,194,492.217,201,512.2174,187,512.2174" style="stroke: #A80036; stroke-width: 1.0;"/><!--link OxidEsales\Eshop\Application\Model\Article to oxarticle--><path d="M343.805,359 C382.153,359 420.385,359 448.271,359 " fill="none" id="OxidEsales\Eshop\Application\Model\Article-oxarticle" style="stroke: #A80036; stroke-width: 1.0;"/><text fill="#000000" font-family="sans-serif" font-size="13" lengthAdjust="spacingAndGlyphs" textLength="68" x="362" y="352.0669">class_alias</text><!--
@startuml

   
   OxidEsales\EshopCommunity\Application\Model\Article <|- - OxidEsales\EshopProfessional\Application\Model\Article
   OxidEsales\EshopProfessional\Application\Model\Article <|- - OxidEsales\EshopEnterprise\Application\Model\Article
   OxidEsales\EshopEnterprise\Application\Model\Article <|- - OxidEsales\Eshop\Application\Model\Article

   OxidEsales\Eshop\Application\Model\Article <|- - Vendor1\Module1\Application\Model\Article
   Vendor1\Module1\Application\Model\Article <|- - Vendor1\Module2\Application\Model\Article

   OxidEsales\Eshop\Application\Model\Article - oxarticle : class_alias

   @enduml

PlantUML version 1.2017.12(Wed Apr 26 18:06:36 CEST 2017)
(GPL source distribution)
Java Runtime: OpenJDK Runtime Environment
JVM: OpenJDK 64-Bit Server VM
Java Version: 1.8.0_152-release-915-b5
Operating System: Linux
OS Version: 4.4.0-87-generic
Default Encoding: UTF-8
Language: de
Country: DE
--></g></svg>