<?xml version="1.0" encoding="UTF-8" standalone="no"?><svg xmlns="http://www.w3.org/2000/svg" xmlns:xlink="http://www.w3.org/1999/xlink" contentScriptType="application/ecmascript" contentStyleType="text/css" height="283px" preserveAspectRatio="none" style="width:542px;height:283px;" version="1.1" viewBox="0 0 542 283" width="542px" zoomAndPan="magnify"><defs><filter height="300%" id="f18q7blcfpyw4v" width="300%" x="-1" y="-1"><feGaussianBlur result="blurOut" stdDeviation="2.0"/><feColorMatrix in="blurOut" result="blurOut2" type="matrix" values="0 0 0 0 0 0 0 0 0 0 0 0 0 0 0 0 0 0 .4 0"/><feOffset dx="4.0" dy="4.0" in="blurOut2" result="blurOut3"/><feBlend in="SourceGraphic" in2="blurOut3" mode="normal"/></filter></defs><g><!--class OxidEsales\EshopCommunity\Application\Model\Article--><rect fill="#FEFECE" filter="url(#f18q7blcfpyw4v)" height="48" id="OxidEsales\EshopCommunity\Application\Model\Article" style="stroke: #A80036; stroke-width: 1.5;" width="367" x="10.5" y="8"/><ellipse cx="25.5" cy="24" fill="#ADD1B2" rx="11" ry="11" style="stroke: #A80036; stroke-width: 1.0;"/><path d="M28.5,29 Q27.8906,29.5 27.2344,29.75 Q26.5781,30 25.8438,30 Q23.2344,30 21.8672,28.4609 Q20.5,26.9219 20.5,24 Q20.5,21.0781 21.8672,19.5391 Q23.2344,18 25.8438,18 Q26.5781,18 27.25,18.25 Q27.9219,18.5 28.5,19 L28.5,22 Q27.8906,20.9688 27.3125,20.4844 Q26.7344,20 26.125,20 Q24.8281,20 24.1641,21.0078 Q23.5,22.0156 23.5,24 Q23.5,25.9844 24.1641,26.9922 Q24.8281,28 26.125,28 Q26.7344,28 27.3125,27.5156 Q27.8906,27.0313 28.5,26 L28.5,29 Z "/><text fill="#000000" font-family="sans-serif" font-size="12" lengthAdjust="spacingAndGlyphs" textLength="335" x="39.5" y="28.1543">OxidEsales\EshopCommunity\Application\Model\Article</text><line style="stroke: #A80036; stroke-width: 1.5;" x1="11.5" x2="376.5" y1="40" y2="40"/><line style="stroke: #A80036; stroke-width: 1.5;" x1="11.5" x2="376.5" y1="48" y2="48"/><!--class OxidEsales\EshopProfessional\Application\Model\Article--><rect fill="#FEFECE" filter="url(#f18q7blcfpyw4v)" height="48" id="OxidEsales\EshopProfessional\Application\Model\Article" style="stroke: #A80036; stroke-width: 1.5;" width="376" x="6" y="117"/><ellipse cx="21" cy="133" fill="#ADD1B2" rx="11" ry="11" style="stroke: #A80036; stroke-width: 1.0;"/><path d="M24,138 Q23.3906,138.5 22.7344,138.75 Q22.0781,139 21.3438,139 Q18.7344,139 17.3672,137.4609 Q16,135.9219 16,133 Q16,130.0781 17.3672,128.5391 Q18.7344,127 21.3438,127 Q22.0781,127 22.75,127.25 Q23.4219,127.5 24,128 L24,131 Q23.3906,129.9688 22.8125,129.4844 Q22.2344,129 21.625,129 Q20.3281,129 19.6641,130.0078 Q19,131.0156 19,133 Q19,134.9844 19.6641,135.9922 Q20.3281,137 21.625,137 Q22.2344,137 22.8125,136.5156 Q23.3906,136.0313 24,135 L24,138 Z "/><text fill="#000000" font-family="sans-serif" font-size="12" lengthAdjust="spacingAndGlyphs" textLength="344" x="35" y="137.1543">OxidEsales\EshopProfessional\Application\Model\Article</text><line style="stroke: #A80036; stroke-width: 1.5;" x1="7" x2="381" y1="149" y2="149"/><line style="stroke: #A80036; stroke-width: 1.5;" x1="7" x2="381" y1="157" y2="157"/><!--class OxidEsales\Eshop\Application\Model\Article--><rect fill="#FEFECE" filter="url(#f18q7blcfpyw4v)" height="48" id="OxidEsales\Eshop\Application\Model\Article" style="stroke: #A80036; stroke-width: 1.5;" width="299" x="44.5" y="226"/><ellipse cx="59.5" cy="242" fill="#ADD1B2" rx="11" ry="11" style="stroke: #A80036; stroke-width: 1.0;"/><path d="M62.5,247 Q61.8906,247.5 61.2344,247.75 Q60.5781,248 59.8438,248 Q57.2344,248 55.8672,246.4609 Q54.5,244.9219 54.5,242 Q54.5,239.0781 55.8672,237.5391 Q57.2344,236 59.8438,236 Q60.5781,236 61.25,236.25 Q61.9219,236.5 62.5,237 L62.5,240 Q61.8906,238.9688 61.3125,238.4844 Q60.7344,238 60.125,238 Q58.8281,238 58.1641,239.0078 Q57.5,240.0156 57.5,242 Q57.5,243.9844 58.1641,244.9922 Q58.8281,246 60.125,246 Q60.7344,246 61.3125,245.5156 Q61.8906,245.0313 62.5,244 L62.5,247 Z "/><text fill="#000000" font-family="sans-serif" font-size="12" lengthAdjust="spacingAndGlyphs" textLength="267" x="73.5" y="246.1543">OxidEsales\Eshop\Application\Model\Article</text><line style="stroke: #A80036; stroke-width: 1.5;" x1="45.5" x2="342.5" y1="258" y2="258"/><line style="stroke: #A80036; stroke-width: 1.5;" x1="45.5" x2="342.5" y1="266" y2="266"/><!--class oxarticle--><rect fill="#FEFECE" filter="url(#f18q7blcfpyw4v)" height="48" id="oxarticle" style="stroke: #A80036; stroke-width: 1.5;" width="85" x="448.5" y="226"/><ellipse cx="463.5" cy="242" fill="#ADD1B2" rx="11" ry="11" style="stroke: #A80036; stroke-width: 1.0;"/><path d="M466.5,247 Q465.8906,247.5 465.2344,247.75 Q464.5781,248 463.8438,248 Q461.2344,248 459.8672,246.4609 Q458.5,244.9219 458.5,242 Q458.5,239.0781 459.8672,237.5391 Q461.2344,236 463.8438,236 Q464.5781,236 465.25,236.25 Q465.9219,236.5 466.5,237 L466.5,240 Q465.8906,238.9688 465.3125,238.4844 Q464.7344,238 464.125,238 Q462.8281,238 462.1641,239.0078 Q461.5,240.0156 461.5,242 Q461.5,243.9844 462.1641,244.9922 Q462.8281,246 464.125,246 Q464.7344,246 465.3125,245.5156 Q465.8906,245.0313 466.5,244 L466.5,247 Z "/><text fill="#000000" font-family="sans-serif" font-size="12" lengthAdjust="spacingAndGlyphs" textLength="53" x="477.5" y="246.1543">oxarticle</text><line style="stroke: #A80036; stroke-width: 1.5;" x1="449.5" x2="532.5" y1="258" y2="258"/><line style="stroke: #A80036; stroke-width: 1.5;" x1="449.5" x2="532.5" y1="266" y2="266"/><!--link OxidEsales\EshopCommunity\Application\Model\Article to OxidEsales\EshopProfessional\Application\Model\Article--><path d="M194,76.578 C194,90.362 194,105.057 194,116.828 " fill="none" id="OxidEsales\EshopCommunity\Application\Model\Article-OxidEsales\EshopProfessional\Application\Model\Article" style="stroke: #A80036; stroke-width: 1.0;"/><polygon fill="none" points="187,76.217,194,56.217,201,76.217,187,76.217" style="stroke: #A80036; stroke-width: 1.0;"/><!--link OxidEsales\EshopProfessional\Application\Model\Article to OxidEsales\Eshop\Application\Model\Article--><path d="M194,185.5778 C194,199.3622 194,214.0574 194,225.8279 " fill="none" id="OxidEsales\EshopProfessional\Application\Model\Article-OxidEsales\Eshop\Application\Model\Article" style="stroke: #A80036; stroke-width: 1.0;"/><polygon fill="none" points="187,185.2174,194,165.217,201,185.2174,187,185.2174" style="stroke: #A80036; stroke-width: 1.0;"/><!--link OxidEsales\Eshop\Application\Model\Article to oxarticle--><path d="M343.805,250 C382.153,250 420.385,250 448.271,250 " fill="none" id="OxidEsales\Eshop\Application\Model\Article-oxarticle" style="stroke: #A80036; stroke-width: 1.0;"/><text fill="#000000" font-family="sans-serif" font-size="13" lengthAdjust="spacingAndGlyphs" textLength="68" x="362" y="243.0669">class_alias</text><!--
@startuml

   OxidEsales\EshopCommunity\Application\Model\Article <|- - OxidEsales\EshopProfessional\Application\Model\Article
   OxidEsales\EshopProfessional\Application\Model\Article <|- - OxidEsales\Eshop\Application\Model\Article

   OxidEsales\Eshop\Application\Model\Article - oxarticle : class_alias

   @enduml

PlantUML version 1.2017.12(Wed Apr 26 18:06:36 CEST 2017)
(GPL source distribution)
Java Runtime: OpenJDK Runtime Environment
JVM: OpenJDK 64-Bit Server VM
Java Version: 1.8.0_152-release-915-b5
Operating System: Linux
OS Version: 4.4.0-87-generic
Default Encoding: UTF-8
Language: de
Country: DE
--></g></svg>