<?xml version="1.0" encoding="UTF-8" standalone="yes"?><svg xmlns="http://www.w3.org/2000/svg" xmlns:xlink="http://www.w3.org/1999/xlink" height="545px" style="width:669px;height:545px;" version="1.1" viewBox="0 0 669 545" width="669px"><defs><filter height="300%" id="f1" width="300%" x="-1" y="-1"><feGaussianBlur result="blurOut" stdDeviation="2.0"/><feColorMatrix in="blurOut" result="blurOut2" type="matrix" values="0 0 0 0 0 0 0 0 0 0 0 0 0 0 0 0 0 0 .4 0"/><feOffset dx="4.0" dy="4.0" in="blurOut2" result="blurOut3"/><feBlend in="SourceGraphic" in2="blurOut3" mode="normal"/></filter></defs><g><polygon fill="#FFFFFF" filter="url(#f1)" points="418,265,428,255,664,255,664,338,654,348,418,348,418,265" style="stroke: #000000; stroke-width: 2.0;"/><line style="stroke: #000000; stroke-width: 2.0;" x1="654" x2="663" y1="265" y2="256"/><line style="stroke: #000000; stroke-width: 2.0;" x1="418" x2="654" y1="265" y2="265"/><line style="stroke: #000000; stroke-width: 2.0;" x1="654" x2="654" y1="265" y2="348"/><text fill="#000000" font-family="sans-serif" font-size="14" font-weight="bold" lengthAdjust="spacingAndGlyphs" textLength="169" x="452.5" y="280.9951">Doctrine 2 Migrations</text><polygon fill="#FFFFFF" filter="url(#f1)" points="22,73,32,63,394,63,394,530,384,540,22,540,22,73" style="stroke: #000000; stroke-width: 2.0;"/><line style="stroke: #000000; stroke-width: 2.0;" x1="384" x2="393" y1="73" y2="64"/><line style="stroke: #000000; stroke-width: 2.0;" x1="22" x2="384" y1="73" y2="73"/><line style="stroke: #000000; stroke-width: 2.0;" x1="384" x2="384" y1="73" y2="540"/><text fill="#000000" font-family="sans-serif" font-size="14" font-weight="bold" lengthAdjust="spacingAndGlyphs" textLength="274" x="67" y="88.9951">OXID eShop migration components</text><rect fill="#FEFECE" filter="url(#f1)" height="36.2969" style="stroke: #A80036; stroke-width: 1.5;" width="154" x="434" y="296"/><rect fill="#FEFECE" height="5" style="stroke: #A80036; stroke-width: 1.5;" width="10" x="429" y="301"/><rect fill="#FEFECE" height="5" style="stroke: #A80036; stroke-width: 1.5;" width="10" x="429" y="322.2969"/><text fill="#000000" font-family="sans-serif" font-size="14" lengthAdjust="spacingAndGlyphs" textLength="134" x="444" y="318.9951">doctrine/migrations</text><rect fill="#FEFECE" filter="url(#f1)" height="36.2969" style="stroke: #A80036; stroke-width: 1.5;" width="300" x="58.5" y="104"/><rect fill="#FEFECE" height="5" style="stroke: #A80036; stroke-width: 1.5;" width="10" x="53.5" y="109"/><rect fill="#FEFECE" height="5" style="stroke: #A80036; stroke-width: 1.5;" width="10" x="53.5" y="130.2969"/><text fill="#000000" font-family="sans-serif" font-size="14" lengthAdjust="spacingAndGlyphs" textLength="280" x="68.5" y="126.9951">oxid-esales/eshop-db-migration-wrapper</text><rect fill="#FEFECE" filter="url(#f1)" height="36.2969" style="stroke: #A80036; stroke-width: 1.5;" width="339" x="38.75" y="200"/><rect fill="#FEFECE" height="5" style="stroke: #A80036; stroke-width: 1.5;" width="10" x="33.75" y="205"/><rect fill="#FEFECE" height="5" style="stroke: #A80036; stroke-width: 1.5;" width="10" x="33.75" y="226.2969"/><text fill="#000000" font-family="sans-serif" font-size="14" lengthAdjust="spacingAndGlyphs" textLength="319" x="48.75" y="222.9951">oxid-esales/eshop-doctrine-migration-wrapper</text><rect fill="#FEFECE" filter="url(#f1)" height="36.2969" style="stroke: #A80036; stroke-width: 1.5;" width="254" x="81" y="296"/><rect fill="#FEFECE" height="5" style="stroke: #A80036; stroke-width: 1.5;" width="10" x="76" y="301"/><rect fill="#FEFECE" height="5" style="stroke: #A80036; stroke-width: 1.5;" width="10" x="76" y="322.2969"/><text fill="#000000" font-family="sans-serif" font-size="14" lengthAdjust="spacingAndGlyphs" textLength="234" x="91" y="318.9951">oxid-esales/eshop-migration-facts</text><rect fill="#FEFECE" filter="url(#f1)" height="36.2969" style="stroke: #A80036; stroke-width: 1.5;" width="237" x="89.75" y="392"/><rect fill="#FEFECE" height="5" style="stroke: #A80036; stroke-width: 1.5;" width="10" x="84.75" y="397"/><rect fill="#FEFECE" height="5" style="stroke: #A80036; stroke-width: 1.5;" width="10" x="84.75" y="418.2969"/><text fill="#000000" font-family="sans-serif" font-size="14" lengthAdjust="spacingAndGlyphs" textLength="217" x="99.75" y="414.9951">oxid-esales/eshop-edition-facts</text><rect fill="#FEFECE" filter="url(#f1)" height="36.2969" style="stroke: #A80036; stroke-width: 1.5;" width="185" x="115.75" y="488"/><rect fill="#FEFECE" height="5" style="stroke: #A80036; stroke-width: 1.5;" width="10" x="110.75" y="493"/><rect fill="#FEFECE" height="5" style="stroke: #A80036; stroke-width: 1.5;" width="10" x="110.75" y="514.2969"/><text fill="#000000" font-family="sans-serif" font-size="14" lengthAdjust="spacingAndGlyphs" textLength="165" x="125.75" y="510.9951">oxid-esales/eshop-facts</text><rect fill="#FEFECE" filter="url(#f1)" height="36.2969" style="stroke: #A80036; stroke-width: 1.5;" width="103" x="156.75" y="8"/><rect fill="#FEFECE" height="5" style="stroke: #A80036; stroke-width: 1.5;" width="10" x="151.75" y="13"/><rect fill="#FEFECE" height="5" style="stroke: #A80036; stroke-width: 1.5;" width="10" x="151.75" y="34.2969"/><text fill="#000000" font-family="sans-serif" font-size="14" lengthAdjust="spacingAndGlyphs" textLength="83" x="166.75" y="30.9951">OXID eShop</text><path d="M208,140.241 C208,155.479 208,177.807 208,194.458 " fill="none" style="stroke: #A80036; stroke-width: 1.0;"/><polygon fill="#A80036" points="208,199.868,212,190.868,208,194.868,204,190.868,208,199.868" style="stroke: #A80036; stroke-width: 1.0;"/><path d="M355.417,236.083 C368.617,239.142 381.649,242.749 394,247 C426.044,258.03 459.407,277.803 482.268,292.84 " fill="none" style="stroke: #A80036; stroke-width: 1.0;"/><polygon fill="#A80036" points="486.696,295.781,481.4105,287.4705,482.5305,293.0154,476.9856,294.1354,486.696,295.781" style="stroke: #A80036; stroke-width: 1.0;"/><path d="M208,236.241 C208,251.479 208,273.807 208,290.458 " fill="none" style="stroke: #A80036; stroke-width: 1.0;"/><polygon fill="#A80036" points="208,295.868,212,286.868,208,290.868,204,286.868,208,295.868" style="stroke: #A80036; stroke-width: 1.0;"/><path d="M208,332.241 C208,347.479 208,369.807 208,386.458 " fill="none" style="stroke: #A80036; stroke-width: 1.0;"/><polygon fill="#A80036" points="208,391.868,212,382.868,208,386.868,204,382.868,208,391.868" style="stroke: #A80036; stroke-width: 1.0;"/><path d="M208,428.241 C208,443.479 208,465.8069 208,482.4576 " fill="none" style="stroke: #A80036; stroke-width: 1.0;"/><polygon fill="#A80036" points="208,487.8683,212,478.8683,208,482.8683,204,478.8683,208,487.8683" style="stroke: #A80036; stroke-width: 1.0;"/><path d="M208,44.241 C208,59.479 208,81.807 208,98.458 " fill="none" style="stroke: #A80036; stroke-width: 1.0;"/><polygon fill="#A80036" points="208,103.868,212,94.868,208,98.868,204,94.868,208,103.868" style="stroke: #A80036; stroke-width: 1.0;"/></g></svg>